<?xml version="1.0" standalone="no"?>
<!DOCTYPE svg PUBLIC "-//W3C//DTD SVG 20010904//EN"
 "http://www.w3.org/TR/2001/REC-SVG-20010904/DTD/svg10.dtd">
<svg version="1.0" xmlns="http://www.w3.org/2000/svg"
 width="224.000000pt" height="224.000000pt" viewBox="0 0 224.000000 224.000000"
 preserveAspectRatio="xMidYMid meet">
<metadata>
Created by potrace 1.14, written by Peter Selinger 2001-2017
</metadata>
<g transform="translate(0.000000,224.000000) scale(0.100000,-0.100000)"
fill="#000000" stroke="none">
<path d="M270 1589 c-80 -23 -155 -99 -180 -182 -9 -31 -15 -428 -11 -714 l1
-33 94 0 95 0 0 356 c1 390 1 392 59 412 38 13 89 -8 102 -44 6 -15 10 -126
10 -264 0 -290 7 -320 84 -396 69 -67 150 -90 251 -72 83 16 156 75 192 156
22 51 23 62 23 302 0 161 4 258 11 273 25 55 107 63 143 14 19 -26 20 -40 21
-380 l0 -352 93 -3 c70 -2 92 0 93 10 6 154 -1 702 -10 734 -66 237 -407 261
-514 35 -20 -43 -22 -61 -23 -301 -1 -141 -4 -265 -8 -276 -7 -23 -40 -45 -78
-51 -22 -3 -35 3 -58 26 l-30 29 -1 244 c0 281 -1 282 -29 337 -47 92 -125
142 -230 147 -36 2 -81 -1 -100 -7z"/>
<path d="M1392 1580 c-4 -3 -7 -210 -7 -460 l1 -455 199 -2 c146 -1 215 3 255
13 211 56 341 226 340 449 -1 223 -128 386 -343 442 -45 11 -114 16 -250 17
-104 1 -191 -1 -195 -4z m433 -189 c104 -46 169 -146 169 -261 0 -43 -16 -122
-31 -151 -26 -52 -95 -112 -151 -132 -43 -16 -150 -24 -222 -18 -13 1 -15 39
-14 294 1 160 2 293 3 294 0 1 45 1 99 -1 74 -2 109 -8 147 -25z"/>
</g>
</svg>
