<svg width="117" height="70" viewBox="0 0 117 70" fill="none" xmlns="http://www.w3.org/2000/svg">
<path d="M37.3684 59.7584C34.6565 59.7584 32.1975 59.1379 29.9912 57.8969C27.8309 56.6559 26.1303 54.9552 24.8893 52.7949C23.6482 50.6346 23.0277 48.1526 23.0277 45.3488V23.1484C23.0277 22.3211 22.8209 21.5627 22.4072 20.8732C21.9936 20.1838 21.442 19.6322 20.7525 19.2186C20.0631 18.8049 19.3047 18.598 18.4773 18.598C17.65 18.598 16.8916 18.8049 16.2021 19.2186C15.5587 19.6322 15.0301 20.1838 14.6164 20.8732C14.2027 21.5627 13.9959 22.3211 13.9959 23.1484V59H4.13672V24.3205C4.13672 21.6546 4.73424 19.2415 5.9293 17.0812C7.12435 14.921 8.80202 13.1973 10.9623 11.9103C13.1226 10.5774 15.6276 9.91094 18.4773 9.91094C21.373 9.91094 23.901 10.5774 26.0613 11.9103C28.2216 13.1973 29.8993 14.921 31.0943 17.0812C32.2894 19.2415 32.8869 21.6546 32.8869 24.3205V46.5209C32.8869 47.3482 33.0938 48.1066 33.5074 48.7961C33.9211 49.4855 34.4497 50.0371 35.0932 50.4508C35.7826 50.8645 36.541 51.0713 37.3684 51.0713C38.1957 51.0713 38.9541 50.8645 39.6436 50.4508C40.333 50.0371 40.8846 49.4855 41.2982 48.7961C41.7119 48.1066 41.9188 47.3482 41.9188 46.5209V24.3205C41.9188 21.6546 42.5163 19.2415 43.7113 17.0812C44.9064 14.921 46.5841 13.1973 48.7443 11.9103C50.9506 10.5774 53.4786 9.91094 56.3283 9.91094C59.224 9.91094 61.729 10.5774 63.8434 11.9103C66.0036 13.1973 67.6813 14.921 68.8764 17.0812C70.0714 19.2415 70.669 21.6546 70.669 24.3205V59H60.8098V23.1484C60.8098 22.3211 60.6029 21.5627 60.1893 20.8732C59.8216 20.1838 59.293 19.6322 58.6035 19.2186C57.9141 18.8049 57.1557 18.598 56.3283 18.598C55.501 18.598 54.7426 18.8049 54.0531 19.2186C53.3637 19.6322 52.8121 20.1838 52.3984 20.8732C51.9848 21.5627 51.7779 22.3211 51.7779 23.1484V45.3488C51.7779 48.1526 51.1344 50.6346 49.8475 52.7949C48.6064 54.9552 46.9058 56.6559 44.7455 57.8969C42.5852 59.1379 40.1262 59.7584 37.3684 59.7584Z" fill="#E4E4E7"/>
<path d="M72.3899 59V10.7383H88.661C93.8089 10.7383 98.2674 11.7725 102.036 13.8408C105.805 15.9092 108.724 18.7589 110.792 22.39C112.907 26.0212 113.964 30.1809 113.964 34.8691C113.964 39.5574 112.907 43.7171 110.792 47.3482C108.724 50.9794 105.805 53.8291 102.036 55.8975C98.2674 57.9658 93.8089 59 88.661 59H72.3899ZM82.2491 50.3129H88.661C91.6486 50.3129 94.2915 49.6924 96.5897 48.4514C98.9338 47.2104 100.772 45.4408 102.105 43.1426C103.438 40.7984 104.105 38.0406 104.105 34.8691C104.105 31.6517 103.438 28.8939 102.105 26.5957C100.772 24.2975 98.9338 22.5279 96.5897 21.2869C94.2915 20.0459 91.6486 19.4254 88.661 19.4254H82.2491V50.3129Z" fill="#FF7038"/>
</svg>
