<svg width="109" height="109" viewBox="0 0 109 109" fill="none" xmlns="http://www.w3.org/2000/svg">
<g clip-path="url(#clip0_1098_1055)">
<path d="M90.4245 65.3955H62.4141V89.4492H90.4245V65.3955Z" fill="#1D1D1D"/>
<path d="M51.4548 65.7598H18.5742V69.4134H51.4548V65.7598Z" fill="#1D1D1D"/>
<path d="M51.4548 85.4316H18.5742V89.0853H51.4548V85.4316Z" fill="#1D1D1D"/>
<path d="M51.4548 75.5957H18.5742V79.2493H51.4548V75.5957Z" fill="#1D1D1D"/>
<path d="M20.3481 0.322485H88.6536C99.7127 0.324371 108.676 9.28728 108.678 20.3466V84.9982C108.674 98.0769 98.0786 108.672 85 108.676H24.0018C10.9213 108.672 0.327806 98.0752 0.322485 84.9983C0.322485 84.9982 0.322485 84.9982 0.322485 84.9981L0.322485 20.3467L20.3481 0.322485ZM20.3481 0.322485C20.3481 0.322485 20.3481 0.322485 20.3481 0.322485M20.3481 0.322485H20.3481M20.3481 0.322485C9.2871 0.3244 0.32589 9.28723 0.322485 20.3466L20.3481 0.322485ZM99.2751 84.9984V84.9983L99.2753 25.2684V24.9459H98.9528H10.0476H9.7251V25.2684V84.9983V84.9986C9.72859 88.9513 11.3169 92.4967 13.9064 95.0914L13.9069 95.0919C16.5013 97.6809 20.0486 99.2712 24.0016 99.2732H24.0017H85.0002H85.0003C88.9533 99.2714 92.4988 97.681 95.0933 95.0919L95.0938 95.0914C97.6828 92.4968 99.2734 88.9514 99.2751 84.9984Z" fill="#1D1D1D" stroke="#FB7D4C" stroke-width="0.64497"/>
<path d="M18.9398 57.0339H26.3022C30.4983 57.0339 33.0385 55.2071 33.0385 51.3821C33.0385 49.0718 31.7256 47.4717 30.4412 46.9864V46.9293C31.7258 46.2157 32.6962 44.9028 32.6962 42.7924C32.6962 39.7078 30.7267 37.626 26.504 37.626H18.9398C18.7704 37.626 18.6562 37.7401 18.6562 37.9112V56.7467C18.6562 56.9196 18.7704 57.0339 18.9398 57.0339ZM22.8523 41.1921C22.8523 41.0797 22.9058 41.0209 23.0235 41.0209H25.992C27.5887 41.0209 28.5308 41.8487 28.5308 43.2742C28.5308 44.7031 27.5887 45.5593 25.992 45.5593H23.0235C22.9058 45.5593 22.8523 45.5023 22.8523 45.3882V41.1921ZM22.8523 48.9541C22.8523 48.8417 22.9058 48.7849 23.0235 48.7849H26.2168C27.933 48.7849 28.8446 49.7267 28.8446 51.2129C28.8446 52.7238 27.933 53.639 26.2168 53.639H23.0235C22.9058 53.639 22.8523 53.5802 22.8523 53.4661V48.9541Z" fill="#7D4430"/>
<path d="M38.6432 57.0337H51.2897C51.4592 57.0337 51.5733 56.9196 51.5733 56.7465V53.58C51.5733 53.4069 51.4592 53.2945 51.2897 53.2945H42.7264C42.6106 53.2945 42.5552 53.2375 42.5552 53.1216V37.9113C42.5552 37.7401 42.4428 37.626 42.2697 37.626H38.6429C38.4716 37.626 38.3594 37.7401 38.3594 37.9113V56.7467C38.3594 56.9194 38.4718 57.0337 38.6432 57.0337Z" fill="#7D4430"/>
<path d="M62.3088 57.3468C65.7071 57.3468 68.3885 55.7786 69.3876 52.6387C69.8157 51.2973 69.9281 50.2126 69.9281 47.3296C69.9281 44.4467 69.8157 43.362 69.3876 42.0204C68.3885 38.8826 65.7071 37.3125 62.3088 37.3125C58.9119 37.3125 56.229 38.8826 55.2316 42.0204C54.8016 43.362 54.6875 44.4467 54.6875 47.3296C54.6875 50.2126 54.8016 51.2973 55.2316 52.6387C56.2288 55.7788 58.9119 57.3468 62.3088 57.3468ZM59.2544 43.1623C59.6826 41.8209 60.7121 41.0217 62.3086 41.0217C63.9069 41.0217 64.9346 41.8209 65.3627 43.1623C65.5911 43.8491 65.6765 44.7875 65.6765 47.3299C65.6765 49.8684 65.5909 50.8121 65.3627 51.4955C64.9346 52.8388 63.9069 53.6397 62.3086 53.6397C60.7119 53.6397 59.6826 52.8386 59.2544 51.4955C59.0279 50.8121 58.9404 49.8684 58.9404 47.3299C58.9404 44.7875 59.0279 43.8491 59.2544 43.1623Z" fill="#7D4430"/>
<path d="M82.5921 57.3468C86.0156 57.3468 88.6989 55.6073 89.6709 52.4942C90.0116 51.4399 90.1527 49.8415 90.1527 48.1288V46.5285C90.1527 46.3608 90.0386 46.2448 89.8691 46.2448H83.1916C83.0185 46.2448 82.9044 46.3608 82.9044 46.5285V49.2723C82.9044 49.4417 83.0185 49.5558 83.1916 49.5558H85.8157C85.9298 49.5558 85.9871 49.6148 85.9871 49.7272C85.9871 50.553 85.9013 51.1542 85.7586 51.6413C85.3588 52.9242 84.103 53.6395 82.6475 53.6395C80.9635 53.6395 79.9054 52.8384 79.4773 51.4953C79.2508 50.8119 79.1652 49.8681 79.1652 47.3296C79.1652 44.7875 79.2508 43.8759 79.4773 43.1908C79.9054 41.8492 80.935 41.0215 82.5921 41.0215C84.1888 41.0215 85.1574 41.7066 85.9298 43.0195C85.9871 43.1621 86.1297 43.2194 86.3313 43.1621L89.3837 41.8777C89.5532 41.7921 89.5853 41.621 89.4978 41.4479C88.5826 39.1072 86.2153 37.3125 82.5919 37.3125C79.1362 37.3125 76.4532 38.8826 75.4543 42.0204C75.026 43.362 74.9102 44.4467 74.9102 47.3296C74.9102 50.2126 75.0262 51.2973 75.4543 52.6387C76.4534 55.7788 79.1367 57.3468 82.5921 57.3468Z" fill="#7D4430"/>
</g>
<defs>
<clipPath id="clip0_1098_1055">
<rect width="109" height="109" fill="white"/>
</clipPath>
</defs>
</svg>
