<svg width="111" height="111" viewBox="0 0 111 111" fill="none" xmlns="http://www.w3.org/2000/svg">
<g clip-path="url(#clip0_1055_1519)">
<path d="M8.67188 29.0257H8.2132V29.4844V93.6562C8.2132 94.8645 9.19569 95.8493 10.4062 95.8493H100.594C101.804 95.8493 102.787 94.8645 102.787 93.6562V29.4844V29.0257H102.328H8.67188ZM10.4062 7.39618H100.594C106.087 7.39618 110.541 11.8502 110.541 17.3438V93.6562C110.541 99.1498 106.087 103.604 100.594 103.604H10.4062C4.91272 103.604 0.458678 99.1498 0.458678 93.6562V17.3438C0.458678 11.8502 4.91272 7.39618 10.4062 7.39618ZM100.98 18.6445C100.98 16.1166 98.9297 14.0667 96.4018 14.0667C93.8738 14.0667 91.8239 16.1166 91.8239 18.6445C91.8239 21.1725 93.8738 23.2223 96.4018 23.2223C98.9297 23.2223 100.98 21.1725 100.98 18.6445ZM85.6954 18.6445C85.6954 16.1166 83.6455 14.0667 81.1176 14.0667C78.5896 14.0667 76.5398 16.1166 76.5398 18.6445C76.5398 21.1725 78.5896 23.2223 81.1176 23.2223C83.6455 23.2223 85.6954 21.1725 85.6954 18.6445ZM70.4112 18.6445C70.4112 16.1166 68.3614 14.0667 65.8334 14.0667C63.3055 14.0667 61.2556 16.1166 61.2556 18.6445C61.2556 21.1725 63.3055 23.2223 65.8334 23.2223C68.3614 23.2223 70.4112 21.1725 70.4112 18.6445Z" fill="#1D1D1D" stroke="#FF7038" stroke-width="0.917355"/>
<path d="M21.1332 70.8175H24.6087C24.8205 70.8175 24.961 70.6803 25.0271 70.4789L28.0133 60.9398H28.0861L30.9977 70.4789C31.0688 70.6805 31.211 70.8175 31.4194 70.8175H34.9289C35.1422 70.8175 35.2829 70.6803 35.349 70.4789L40.7943 54.7273C40.8622 54.5257 40.7538 54.3887 40.5114 54.3887H36.1943C35.9452 54.3887 35.8062 54.4936 35.7386 54.7273L33.0692 64.5035H33.0015L30.0171 54.7273C29.9443 54.4936 29.8053 54.3887 29.5597 54.3887H26.6108C26.3636 54.3887 26.1872 54.4936 26.1213 54.7273L23.2045 64.5035H23.1334L20.3267 54.7273C20.2556 54.4936 20.1201 54.3887 19.8355 54.3887H15.5201C15.3051 54.3887 15.2049 54.5259 15.2693 54.7273L20.7148 70.4789C20.7842 70.6803 20.9249 70.8175 21.1332 70.8175Z" fill="#7D4430"/>
<path d="M48.5796 70.8175H52.0601C52.2684 70.8175 52.4108 70.6803 52.4785 70.4789L55.4629 60.9398H55.534L58.4456 70.4789C58.5184 70.6805 58.6589 70.8175 58.869 70.8175H62.3768C62.5901 70.8175 62.7291 70.6803 62.8002 70.4789L68.2422 54.7273C68.3101 54.5257 68.2049 54.3887 67.961 54.3887H63.6453C63.3946 54.3887 63.2539 54.4936 63.1863 54.7273L60.5169 64.5035H60.4475L57.4648 54.7273C57.392 54.4936 57.2532 54.3887 57.0091 54.3887H54.0587C53.8131 54.3887 53.6368 54.4936 53.5692 54.7273L50.6543 64.5035H50.5848L47.7749 54.7273C47.707 54.4936 47.5648 54.3887 47.2853 54.3887H42.968C42.753 54.3887 42.6496 54.5259 42.7224 54.7273L48.1627 70.4789C48.2325 70.6803 48.373 70.8175 48.5796 70.8175Z" fill="#7D4430"/>
<path d="M76.0665 70.8175H79.5454C79.752 70.8175 79.8925 70.6803 79.9621 70.4789L82.9465 60.9398H83.0194L85.9308 70.4789C86.0019 70.6805 86.1408 70.8175 86.3509 70.8175H89.8619C90.0737 70.8175 90.2142 70.6803 90.2838 70.4789L95.7291 54.7273C95.7935 54.5257 95.6886 54.3887 95.4481 54.3887H91.1256C90.88 54.3887 90.7393 54.4936 90.6717 54.7273L88.0042 64.5035H87.9348L84.9504 54.7273C84.8776 54.4936 84.7386 54.3887 84.4947 54.3887H81.5424C81.2967 54.3887 81.1222 54.4936 81.0546 54.7273L78.136 64.5035H78.0701L75.2618 54.7273C75.1889 54.4936 75.0534 54.3887 74.7705 54.3887H70.4515C70.2414 54.3887 70.1362 54.5259 70.2041 54.7273L75.6496 70.4789C75.7159 70.6803 75.8564 70.8175 76.0665 70.8175Z" fill="#7D4430"/>
</g>
<defs>
<clipPath id="clip0_1055_1519">
<rect width="111" height="111" fill="white"/>
</clipPath>
</defs>
</svg>
