<svg width="119" height="119" viewBox="0 0 119 119" fill="none" xmlns="http://www.w3.org/2000/svg">
<g clip-path="url(#clip0_1055_1536)">
<path d="M48.306 63.3428C50.6435 69.0715 54.2795 75.9373 57.7972 80.6963C59.0764 82.4281 60.8442 84.4588 60.8442 84.4588C61.4253 85.1769 62.4284 85.3922 63.2503 84.9673L73.4922 79.7169C74.3914 79.256 74.7877 78.1834 74.4065 77.2479L70.6583 68.0463C70.282 67.1203 69.2705 66.6308 68.3122 66.9053L63.7828 68.2122C62.8863 68.4693 61.9311 68.054 61.5071 67.2217C61.5071 67.2217 59.4381 64.0686 57.5999 59.5536C55.7605 55.0423 55.0337 51.3407 55.0337 51.3407C54.7566 50.4473 55.149 49.4853 55.9729 49.0412L60.1212 46.8085C60.9993 46.3381 61.3786 45.2787 61.0032 44.3548L57.254 35.1551C56.8722 34.2178 55.8367 33.7301 54.8708 34.0253L43.8784 37.4277C42.9954 37.702 42.4267 38.5575 42.5124 39.4721C42.5124 39.4721 42.6668 42.1638 42.9619 44.2958C43.7747 50.1596 45.9723 57.6085 48.306 63.3428Z" fill="#7D4430"/>
<path d="M50.7233 4.70253H68.2788C69.5441 4.70253 70.5678 5.72909 70.5678 6.99148C70.5678 8.25411 69.5443 9.28043 68.2788 9.28043H50.7233C49.4581 9.28043 48.4347 8.2544 48.4346 6.9916L50.7233 4.70253ZM50.7233 4.70253C49.4581 4.70253 48.4344 5.72903 48.4346 6.99148L50.7233 4.70253ZM29.2643 16.0819H28.7643V16.5819V96.8799C28.7643 97.8083 28.8614 98.7095 29.0219 99.5821L29.0973 99.9917H29.5137H89.4901H89.9063L89.9818 99.5824C90.1429 98.7093 90.2397 97.808 90.2397 96.8797V16.5819V16.0819H89.7397H29.2643ZM35.2863 0.5H83.7177C91.0773 0.5 97.0428 6.46576 97.0428 13.8254V96.8799C97.0428 108.821 87.3639 118.5 75.4228 118.5H43.581C31.6399 118.5 21.9609 108.821 21.9609 96.8799V13.8254C21.9609 6.46578 27.9269 0.5 35.2863 0.5ZM55.5878 108.434C55.5878 110.596 57.3397 112.348 59.5019 112.348C61.6641 112.348 63.4157 110.597 63.4157 108.434C63.4157 106.272 61.6639 104.52 59.5019 104.52C57.3396 104.52 55.5878 106.272 55.5878 108.434Z" fill="#1D1D1D" stroke="#FF7038"/>
</g>
<defs>
<clipPath id="clip0_1055_1536">
<rect width="119" height="119" fill="white"/>
</clipPath>
</defs>
</svg>
