<svg width="80" height="80" viewBox="0 0 113 117" fill="none" xmlns="http://www.w3.org/2000/svg">
<path d="M48.1918 107.067C48.1918 102.415 51.9195 98.6585 56.5016 98.6585C61.0836 98.6585 64.8113 102.415 64.8113 107.067C64.8113 111.719 61.0834 115.477 56.5016 115.477C51.9197 115.477 48.1918 111.719 48.1918 107.067Z" fill="#1D1D1D" stroke="#FF7038" stroke-width="1.43038"/>
<path d="M53.4457 92.6118V74.1351H59.5486V92.6121C58.5615 92.3975 57.5415 92.2811 56.4971 92.2811C55.4521 92.2811 54.4319 92.3974 53.4457 92.6118Z" fill="#1D1D1D" stroke="#FF7038" stroke-width="1.43038"/>
<path d="M42.1919 110.162H19.8636V103.975H42.1919C41.9779 104.974 41.861 106.009 41.861 107.068C41.861 108.128 41.9779 109.162 42.1919 110.162Z" fill="#1D1D1D" stroke="#FF7038" stroke-width="1.43038"/>
<path d="M93.1464 110.162H70.8181C71.0317 109.162 71.1475 108.128 71.1475 107.068C71.1475 106.009 71.0317 104.975 70.8182 103.975H93.1464V110.162Z" fill="#1D1D1D" stroke="#FF7038" stroke-width="1.43038"/>
<path d="M75.9397 16.5609L76.2584 17.2317L76.9464 16.9521C79.9084 15.7484 83.1335 15.0687 86.5158 15.0687C100.7 15.0687 112.214 26.6973 112.213 41.0605C112.213 55.4237 100.7 67.0523 86.5155 67.0523H20.3048C9.53381 67.0523 0.786709 58.2223 0.786709 47.3089C0.786709 36.3952 9.53382 27.5652 20.3048 27.5652C21.1859 27.5652 22.0531 27.6464 22.9267 27.7646L23.7717 27.879L23.8178 27.0276C24.6105 12.3966 36.5585 0.786709 51.2032 0.786709C62.1078 0.786709 71.5072 7.23196 75.9397 16.5609ZM42.6897 41.84H49.4363V55.0171V55.8038H50.223H62.7792H63.5659V55.0171V41.84H70.3125H71.957L70.9251 40.5596L57.1127 23.4213L56.5001 22.6612L55.8875 23.4213L42.0771 40.5596L41.0454 41.84H42.6897Z" fill="#1D1D1D" stroke="#FF7038" stroke-width="1.57342"/>
</svg>
