<svg width="81" height="38" viewBox="0 0 81 38" fill="none" xmlns="http://www.w3.org/2000/svg">
<g filter="url(#filter0_d_1136_1484)">
<path d="M3.1 38V0.499997H3.15L22.45 27.85L20.15 27.35L39.35 0.499997H39.45V38H34.15V12.55L34.5 15.3L21.1 34.25H21L7.35 15.3L8.25 12.8V38H3.1ZM50.8832 38V1.7H60.9832C64.5832 1.7 67.6499 2.25 70.1832 3.35C72.7165 4.45 74.7499 5.9 76.2832 7.7C77.8499 9.5 78.9832 11.5 79.6832 13.7C80.4165 15.9 80.7832 18.1167 80.7832 20.35C80.7832 23.05 80.2999 25.4833 79.3332 27.65C78.3665 29.8167 77.0499 31.6833 75.3832 33.25C73.7165 34.7833 71.7999 35.9667 69.6332 36.8C67.4665 37.6 65.1665 38 62.7332 38H50.8832ZM56.2332 32.85H61.7332C63.6999 32.85 65.4999 32.5667 67.1332 32C68.7999 31.4333 70.2332 30.6 71.4332 29.5C72.6665 28.4 73.6165 27.05 74.2832 25.45C74.9499 23.85 75.2832 22.0167 75.2832 19.95C75.2832 17.7167 74.8999 15.7833 74.1332 14.15C73.3999 12.4833 72.4165 11.1167 71.1832 10.05C69.9499 8.95 68.5665 8.15 67.0332 7.65C65.5332 7.11666 63.9999 6.85 62.4332 6.85H56.2332V32.85Z" fill="#E4E4E7"/>
</g>
<defs>
<filter id="filter0_d_1136_1484" x="0.413478" y="0.5" width="80.3697" height="37.5" filterUnits="userSpaceOnUse" color-interpolation-filters="sRGB">
<feFlood flood-opacity="0" result="BackgroundImageFix"/>
<feColorMatrix in="SourceAlpha" type="matrix" values="0 0 0 0 0 0 0 0 0 0 0 0 0 0 0 0 0 0 127 0" result="hardAlpha"/>
<feOffset dx="-2.68613"/>
<feComposite in2="hardAlpha" operator="out"/>
<feColorMatrix type="matrix" values="0 0 0 0 1 0 0 0 0 0.439216 0 0 0 0 0.219608 0 0 0 1 0"/>
<feBlend mode="normal" in2="BackgroundImageFix" result="effect1_dropShadow_1136_1484"/>
<feBlend mode="normal" in="SourceGraphic" in2="effect1_dropShadow_1136_1484" result="shape"/>
</filter>
</defs>
</svg>
