<svg width="83" height="38" viewBox="0 0 83 38" fill="none" xmlns="http://www.w3.org/2000/svg">
<g filter="url(#filter0_d_1149_1281)">
<path d="M5.1 38V0.499997H5.15L24.45 27.85L22.15 27.35L41.35 0.499997H41.45V38H36.15V12.55L36.5 15.3L23.1 34.25H23L9.35 15.3L10.25 12.8V38H5.1ZM52.8832 38V1.7H62.9832C66.5832 1.7 69.6499 2.25 72.1832 3.35C74.7165 4.45 76.7499 5.9 78.2832 7.7C79.8499 9.5 80.9832 11.5 81.6832 13.7C82.4165 15.9 82.7832 18.1167 82.7832 20.35C82.7832 23.05 82.2999 25.4833 81.3332 27.65C80.3665 29.8167 79.0499 31.6833 77.3832 33.25C75.7165 34.7833 73.7999 35.9667 71.6332 36.8C69.4665 37.6 67.1665 38 64.7332 38H52.8832ZM58.2332 32.85H63.7332C65.6999 32.85 67.4999 32.5667 69.1332 32C70.7999 31.4333 72.2332 30.6 73.4332 29.5C74.6665 28.4 75.6165 27.05 76.2832 25.45C76.9499 23.85 77.2832 22.0167 77.2832 19.95C77.2832 17.7167 76.8999 15.7833 76.1332 14.15C75.3999 12.4833 74.4165 11.1167 73.1832 10.05C71.9499 8.95 70.5665 8.15 69.0332 7.65C67.5332 7.11666 65.9999 6.85 64.4332 6.85H58.2332V32.85Z" fill="#27272A"/>
<path d="M5.1 38H4.1V39H5.1V38ZM5.1 0.499997V-0.500003H4.1V0.499997H5.1ZM5.15 0.499997L5.96705 -0.0765689L5.66825 -0.500003H5.15V0.499997ZM24.45 27.85L24.2376 28.8272L26.7487 29.3731L25.2671 27.2734L24.45 27.85ZM22.15 27.35L21.3366 26.7683L20.4527 28.0044L21.9376 28.3272L22.15 27.35ZM41.35 0.499997V-0.500003H40.8357L40.5366 -0.0816709L41.35 0.499997ZM41.45 0.499997H42.45V-0.500003H41.45V0.499997ZM41.45 38V39H42.45V38H41.45ZM36.15 38H35.15V39H36.15V38ZM36.15 12.55L37.142 12.4237L35.15 12.55H36.15ZM36.5 15.3L37.3165 15.8774L37.5411 15.5597L37.492 15.1737L36.5 15.3ZM23.1 34.25V35.25H23.6176L23.9165 34.8274L23.1 34.25ZM23 34.25L22.1886 34.8345L22.4879 35.25H23V34.25ZM9.35 15.3L8.40911 14.9613L8.23066 15.457L8.53859 15.8845L9.35 15.3ZM10.25 12.8H11.25L9.30911 12.4613L10.25 12.8ZM10.25 38V39H11.25V38H10.25ZM6.1 38V0.499997H4.1V38H6.1ZM5.1 1.5H5.15V-0.500003H5.1V1.5ZM4.33295 1.07656L23.633 28.4266L25.2671 27.2734L5.96705 -0.0765689L4.33295 1.07656ZM24.6624 26.8728L22.3624 26.3728L21.9376 28.3272L24.2376 28.8272L24.6624 26.8728ZM22.9634 27.9317L42.1634 1.08166L40.5366 -0.0816709L21.3366 26.7683L22.9634 27.9317ZM41.35 1.5H41.45V-0.500003H41.35V1.5ZM40.45 0.499997V38H42.45V0.499997H40.45ZM41.45 37H36.15V39H41.45V37ZM37.15 38V12.55H35.15V38H37.15ZM35.158 12.6763L35.508 15.4263L37.492 15.1737L37.142 12.4237L35.158 12.6763ZM35.6835 14.7226L22.2835 33.6726L23.9165 34.8274L37.3165 15.8774L35.6835 14.7226ZM23.1 33.25H23V35.25H23.1V33.25ZM23.8114 33.6655L10.1614 14.7155L8.53859 15.8845L22.1886 34.8345L23.8114 33.6655ZM10.2909 15.6387L11.1909 13.1387L9.30911 12.4613L8.40911 14.9613L10.2909 15.6387ZM9.25 12.8V38H11.25V12.8H9.25ZM10.25 37H5.1V39H10.25V37ZM52.8832 38H51.8832V39H52.8832V38ZM52.8832 1.7V0.699999H51.8832V1.7H52.8832ZM72.1832 3.35L72.5815 2.43274L72.5815 2.43274L72.1832 3.35ZM78.2832 7.7L77.5219 8.3485L77.5289 8.35652L78.2832 7.7ZM81.6832 13.7L80.7302 14.0032L80.7345 14.0162L81.6832 13.7ZM81.3332 27.65L80.42 27.2426L80.42 27.2426L81.3332 27.65ZM77.3832 33.25L78.0603 33.986L78.0681 33.9786L77.3832 33.25ZM71.6332 36.8L71.9796 37.7382L71.9922 37.7333L71.6332 36.8ZM58.2332 32.85H57.2332V33.85H58.2332V32.85ZM69.1332 32L68.8113 31.0532L68.8054 31.0552L69.1332 32ZM73.4332 29.5L72.7675 28.7536L72.7575 28.7628L73.4332 29.5ZM76.2832 25.45L77.2063 25.8346L77.2063 25.8346L76.2832 25.45ZM76.1332 14.15L75.2179 14.5527L75.2228 14.5639L75.228 14.5749L76.1332 14.15ZM73.1832 10.05L72.5176 10.7963L72.5233 10.8014L72.5291 10.8064L73.1832 10.05ZM69.0332 7.65L68.6982 8.59221L68.7106 8.59663L68.7232 8.60073L69.0332 7.65ZM58.2332 6.85V5.85H57.2332V6.85H58.2332ZM53.8832 38V1.7H51.8832V38H53.8832ZM52.8832 2.7H62.9832V0.699999H52.8832V2.7ZM62.9832 2.7C66.4859 2.7 69.4092 3.2357 71.7849 4.26726L72.5815 2.43274C69.8905 1.2643 66.6805 0.699999 62.9832 0.699999V2.7ZM71.7849 4.26726C74.2018 5.31669 76.1029 6.68256 77.522 8.34847L79.0444 7.05153C77.3969 5.11744 75.2313 3.58331 72.5815 2.43274L71.7849 4.26726ZM77.5289 8.35652C79.009 10.0571 80.0731 11.9377 80.7303 14.0032L82.6361 13.3968C81.8933 11.0623 80.6907 8.94291 79.0375 7.04348L77.5289 8.35652ZM80.7345 14.0162C81.4352 16.1182 81.7832 18.2282 81.7832 20.35H83.7832C83.7832 18.0051 83.3979 15.6818 82.6319 13.3838L80.7345 14.0162ZM81.7832 20.35C81.7832 22.9289 81.322 25.2207 80.42 27.2426L82.2464 28.0574C83.2777 25.746 83.7832 23.1711 83.7832 20.35H81.7832ZM80.42 27.2426C79.5053 29.2927 78.2647 31.049 76.6983 32.5214L78.0681 33.9786C79.835 32.3177 81.2278 30.3407 82.2464 28.0574L80.42 27.2426ZM76.7061 32.5141C75.1345 33.96 73.3264 35.0774 71.2742 35.8667L71.9922 37.7333C74.2734 36.856 76.2986 35.6067 78.0603 33.9859L76.7061 32.5141ZM71.2868 35.8619C69.2369 36.6188 67.0547 37 64.7332 37V39C67.2784 39 69.6962 38.5812 71.9796 37.7381L71.2868 35.8619ZM64.7332 37H52.8832V39H64.7332V37ZM58.2332 33.85H63.7332V31.85H58.2332V33.85ZM63.7332 33.85C65.7963 33.85 67.7088 33.5526 69.461 32.9448L68.8054 31.0552C67.2909 31.5807 65.6034 31.85 63.7332 31.85V33.85ZM69.4551 32.9468C71.2422 32.3392 72.7987 31.4382 74.1089 30.2372L72.7575 28.7628C71.6677 29.7618 70.3576 30.5275 68.8113 31.0532L69.4551 32.9468ZM74.0988 30.2463C75.4495 29.0417 76.4849 27.566 77.2063 25.8346L75.3601 25.0654C74.7482 26.534 73.8836 27.7583 72.7676 28.7537L74.0988 30.2463ZM77.2063 25.8346C77.9325 24.0917 78.2832 22.1238 78.2832 19.95H76.2832C76.2832 21.9095 75.9672 23.6083 75.3601 25.0654L77.2063 25.8346ZM78.2832 19.95C78.2832 17.6039 77.8805 15.5191 77.0384 13.7251L75.228 14.5749C75.9192 16.0475 76.2832 17.8295 76.2832 19.95H78.2832ZM77.0485 13.7473C76.2625 11.9608 75.1954 10.4681 73.8374 9.29364L72.5291 10.8064C73.6377 11.7652 74.5373 13.0059 75.2179 14.5527L77.0485 13.7473ZM73.8488 9.3037C72.515 8.11405 71.0112 7.24318 69.3432 6.69927L68.7232 8.60073C70.1218 9.05681 71.3848 9.78595 72.5176 10.7963L73.8488 9.3037ZM69.3682 6.70778C67.7624 6.13684 66.1159 5.85 64.4332 5.85V7.85C65.8839 7.85 67.304 8.09649 68.6982 8.59221L69.3682 6.70778ZM64.4332 5.85H58.2332V7.85H64.4332V5.85ZM57.2332 6.85V32.85H59.2332V6.85H57.2332Z" fill="#27272A"/>
</g>
<defs>
<filter id="filter0_d_1149_1281" x="0.985104" y="0.5" width="81.7981" height="37.5" filterUnits="userSpaceOnUse" color-interpolation-filters="sRGB">
<feFlood flood-opacity="0" result="BackgroundImageFix"/>
<feColorMatrix in="SourceAlpha" type="matrix" values="0 0 0 0 0 0 0 0 0 0 0 0 0 0 0 0 0 0 127 0" result="hardAlpha"/>
<feOffset dx="-4.11451"/>
<feComposite in2="hardAlpha" operator="out"/>
<feColorMatrix type="matrix" values="0 0 0 0 1 0 0 0 0 0.439216 0 0 0 0 0.219608 0 0 0 1 0"/>
<feBlend mode="normal" in2="BackgroundImageFix" result="effect1_dropShadow_1149_1281"/>
<feBlend mode="normal" in="SourceGraphic" in2="effect1_dropShadow_1149_1281" result="shape"/>
</filter>
</defs>
</svg>
