<svg width="81" height="38" viewBox="0 0 81 38" fill="none" xmlns="http://www.w3.org/2000/svg">
<g filter="url(#filter0_d_1136_1484)">
<path d="M3.1 38V0.499997H3.15L22.45 27.85L20.15 27.35L39.35 0.499997H39.45V38H34.15V12.55L34.5 15.3L21.1 34.25H21L7.35 15.3L8.25 12.8V38H3.1ZM50.8832 38V1.7H60.9832C64.5832 1.7 67.6499 2.25 70.1832 3.35C72.7165 4.45 74.7499 5.9 76.2832 7.7C77.8499 9.5 78.9832 11.5 79.6832 13.7C80.4165 15.9 80.7832 18.1167 80.7832 20.35C80.7832 23.05 80.2999 25.4833 79.3332 27.65C78.3665 29.8167 77.0499 31.6833 75.3832 33.25C73.7165 34.7833 71.7999 35.9667 69.6332 36.8C67.4665 37.6 65.1665 38 62.7332 38H50.8832ZM56.2332 32.85H61.7332C63.6999 32.85 65.4999 32.5667 67.1332 32C68.7999 31.4333 70.2332 30.6 71.4332 29.5C72.6665 28.4 73.6165 27.05 74.2832 25.45C74.9499 23.85 75.2832 22.0167 75.2832 19.95C75.2832 17.7167 74.8999 15.7833 74.1332 14.15C73.3999 12.4833 72.4165 11.1167 71.1832 10.05C69.9499 8.95 68.5665 8.15 67.0332 7.65C65.5332 7.11666 63.9999 6.85 62.4332 6.85H56.2332V32.85Z" fill="#E4E4E7"/>
<path d="M3.1 38H2.1V39H3.1V38ZM3.1 0.499997V-0.500003H2.1V0.499997H3.1ZM3.15 0.499997L3.96705 -0.0765689L3.66825 -0.500003H3.15V0.499997ZM22.45 27.85L22.2376 28.8272L24.7487 29.3731L23.2671 27.2734L22.45 27.85ZM20.15 27.35L19.3366 26.7683L18.4527 28.0044L19.9376 28.3272L20.15 27.35ZM39.35 0.499997V-0.500003H38.8357L38.5366 -0.0816709L39.35 0.499997ZM39.45 0.499997H40.45V-0.500003H39.45V0.499997ZM39.45 38V39H40.45V38H39.45ZM34.15 38H33.15V39H34.15V38ZM34.15 12.55L35.142 12.4237L33.15 12.55H34.15ZM34.5 15.3L35.3165 15.8774L35.5411 15.5597L35.492 15.1737L34.5 15.3ZM21.1 34.25V35.25H21.6176L21.9165 34.8274L21.1 34.25ZM21 34.25L20.1886 34.8345L20.4879 35.25H21V34.25ZM7.35 15.3L6.40911 14.9613L6.23066 15.457L6.53859 15.8845L7.35 15.3ZM8.25 12.8H9.25L7.30911 12.4613L8.25 12.8ZM8.25 38V39H9.25V38H8.25ZM4.1 38V0.499997H2.1V38H4.1ZM3.1 1.5H3.15V-0.500003H3.1V1.5ZM2.33295 1.07656L21.633 28.4266L23.2671 27.2734L3.96705 -0.0765689L2.33295 1.07656ZM22.6624 26.8728L20.3624 26.3728L19.9376 28.3272L22.2376 28.8272L22.6624 26.8728ZM20.9634 27.9317L40.1634 1.08166L38.5366 -0.0816709L19.3366 26.7683L20.9634 27.9317ZM39.35 1.5H39.45V-0.500003H39.35V1.5ZM38.45 0.499997V38H40.45V0.499997H38.45ZM39.45 37H34.15V39H39.45V37ZM35.15 38V12.55H33.15V38H35.15ZM33.158 12.6763L33.508 15.4263L35.492 15.1737L35.142 12.4237L33.158 12.6763ZM33.6835 14.7226L20.2835 33.6726L21.9165 34.8274L35.3165 15.8774L33.6835 14.7226ZM21.1 33.25H21V35.25H21.1V33.25ZM21.8114 33.6655L8.16141 14.7155L6.53859 15.8845L20.1886 34.8345L21.8114 33.6655ZM8.29089 15.6387L9.19089 13.1387L7.30911 12.4613L6.40911 14.9613L8.29089 15.6387ZM7.25 12.8V38H9.25V12.8H7.25ZM8.25 37H3.1V39H8.25V37ZM50.8832 38H49.8832V39H50.8832V38ZM50.8832 1.7V0.699999H49.8832V1.7H50.8832ZM70.1832 3.35L70.5815 2.43274L70.5815 2.43274L70.1832 3.35ZM76.2832 7.7L75.5219 8.3485L75.5289 8.35652L76.2832 7.7ZM79.6832 13.7L78.7302 14.0032L78.7345 14.0162L79.6832 13.7ZM79.3332 27.65L78.42 27.2426L78.42 27.2426L79.3332 27.65ZM75.3832 33.25L76.0603 33.986L76.0681 33.9786L75.3832 33.25ZM69.6332 36.8L69.9796 37.7382L69.9922 37.7333L69.6332 36.8ZM56.2332 32.85H55.2332V33.85H56.2332V32.85ZM67.1332 32L66.8113 31.0532L66.8054 31.0552L67.1332 32ZM71.4332 29.5L70.7675 28.7536L70.7575 28.7628L71.4332 29.5ZM74.2832 25.45L75.2063 25.8346L75.2063 25.8346L74.2832 25.45ZM74.1332 14.15L73.2179 14.5527L73.2228 14.5639L73.228 14.5749L74.1332 14.15ZM71.1832 10.05L70.5176 10.7963L70.5233 10.8014L70.5291 10.8064L71.1832 10.05ZM67.0332 7.65L66.6982 8.59221L66.7106 8.59663L66.7232 8.60073L67.0332 7.65ZM56.2332 6.85V5.85H55.2332V6.85H56.2332ZM51.8832 38V1.7H49.8832V38H51.8832ZM50.8832 2.7H60.9832V0.699999H50.8832V2.7ZM60.9832 2.7C64.4859 2.7 67.4092 3.2357 69.7849 4.26726L70.5815 2.43274C67.8905 1.2643 64.6805 0.699999 60.9832 0.699999V2.7ZM69.7849 4.26726C72.2018 5.31669 74.1029 6.68256 75.522 8.34847L77.0444 7.05153C75.3969 5.11744 73.2313 3.58331 70.5815 2.43274L69.7849 4.26726ZM75.5289 8.35652C77.009 10.0571 78.0731 11.9377 78.7303 14.0032L80.6361 13.3968C79.8933 11.0623 78.6907 8.94291 77.0375 7.04348L75.5289 8.35652ZM78.7345 14.0162C79.4352 16.1182 79.7832 18.2282 79.7832 20.35H81.7832C81.7832 18.0051 81.3979 15.6818 80.6319 13.3838L78.7345 14.0162ZM79.7832 20.35C79.7832 22.9289 79.322 25.2207 78.42 27.2426L80.2464 28.0574C81.2777 25.746 81.7832 23.1711 81.7832 20.35H79.7832ZM78.42 27.2426C77.5053 29.2927 76.2647 31.049 74.6983 32.5214L76.0681 33.9786C77.835 32.3177 79.2278 30.3407 80.2464 28.0574L78.42 27.2426ZM74.7061 32.5141C73.1345 33.96 71.3264 35.0774 69.2742 35.8667L69.9922 37.7333C72.2734 36.856 74.2986 35.6067 76.0603 33.9859L74.7061 32.5141ZM69.2868 35.8619C67.2369 36.6188 65.0547 37 62.7332 37V39C65.2784 39 67.6962 38.5812 69.9796 37.7381L69.2868 35.8619ZM62.7332 37H50.8832V39H62.7332V37ZM56.2332 33.85H61.7332V31.85H56.2332V33.85ZM61.7332 33.85C63.7963 33.85 65.7088 33.5526 67.461 32.9448L66.8054 31.0552C65.2909 31.5807 63.6034 31.85 61.7332 31.85V33.85ZM67.4551 32.9468C69.2422 32.3392 70.7987 31.4382 72.1089 30.2372L70.7575 28.7628C69.6677 29.7618 68.3576 30.5275 66.8113 31.0532L67.4551 32.9468ZM72.0988 30.2463C73.4495 29.0417 74.4849 27.566 75.2063 25.8346L73.3601 25.0654C72.7482 26.534 71.8836 27.7583 70.7676 28.7537L72.0988 30.2463ZM75.2063 25.8346C75.9325 24.0917 76.2832 22.1238 76.2832 19.95H74.2832C74.2832 21.9095 73.9672 23.6083 73.3601 25.0654L75.2063 25.8346ZM76.2832 19.95C76.2832 17.6039 75.8805 15.5191 75.0384 13.7251L73.228 14.5749C73.9192 16.0475 74.2832 17.8295 74.2832 19.95H76.2832ZM75.0485 13.7473C74.2625 11.9608 73.1954 10.4681 71.8374 9.29364L70.5291 10.8064C71.6377 11.7652 72.5373 13.0059 73.2179 14.5527L75.0485 13.7473ZM71.8488 9.3037C70.515 8.11405 69.0112 7.24318 67.3432 6.69927L66.7232 8.60073C68.1218 9.05681 69.3848 9.78595 70.5176 10.7963L71.8488 9.3037ZM67.3682 6.70778C65.7624 6.13684 64.1159 5.85 62.4332 5.85V7.85C63.8839 7.85 65.304 8.09649 66.6982 8.59221L67.3682 6.70778ZM62.4332 5.85H56.2332V7.85H62.4332V5.85ZM55.2332 6.85V32.85H57.2332V6.85H55.2332Z" fill="#E4E4E7"/>
</g>
<defs>
<filter id="filter0_d_1136_1484" x="0.413478" y="0.5" width="80.3697" height="37.5" filterUnits="userSpaceOnUse" color-interpolation-filters="sRGB">
<feFlood flood-opacity="0" result="BackgroundImageFix"/>
<feColorMatrix in="SourceAlpha" type="matrix" values="0 0 0 0 0 0 0 0 0 0 0 0 0 0 0 0 0 0 127 0" result="hardAlpha"/>
<feOffset dx="-2.68613"/>
<feComposite in2="hardAlpha" operator="out"/>
<feColorMatrix type="matrix" values="0 0 0 0 1 0 0 0 0 0.439216 0 0 0 0 0.219608 0 0 0 1 0"/>
<feBlend mode="normal" in2="BackgroundImageFix" result="effect1_dropShadow_1136_1484"/>
<feBlend mode="normal" in="SourceGraphic" in2="effect1_dropShadow_1136_1484" result="shape"/>
</filter>
</defs>
</svg>
