<svg width="83" height="38" viewBox="0 0 83 38" fill="none" xmlns="http://www.w3.org/2000/svg">
<g filter="url(#filter0_d_1149_1281)">
<path d="M5.1 38V0.499997H5.15L24.45 27.85L22.15 27.35L41.35 0.499997H41.45V38H36.15V12.55L36.5 15.3L23.1 34.25H23L9.35 15.3L10.25 12.8V38H5.1ZM52.8832 38V1.7H62.9832C66.5832 1.7 69.6499 2.25 72.1832 3.35C74.7165 4.45 76.7499 5.9 78.2832 7.7C79.8499 9.5 80.9832 11.5 81.6832 13.7C82.4165 15.9 82.7832 18.1167 82.7832 20.35C82.7832 23.05 82.2999 25.4833 81.3332 27.65C80.3665 29.8167 79.0499 31.6833 77.3832 33.25C75.7165 34.7833 73.7999 35.9667 71.6332 36.8C69.4665 37.6 67.1665 38 64.7332 38H52.8832ZM58.2332 32.85H63.7332C65.6999 32.85 67.4999 32.5667 69.1332 32C70.7999 31.4333 72.2332 30.6 73.4332 29.5C74.6665 28.4 75.6165 27.05 76.2832 25.45C76.9499 23.85 77.2832 22.0167 77.2832 19.95C77.2832 17.7167 76.8999 15.7833 76.1332 14.15C75.3999 12.4833 74.4165 11.1167 73.1832 10.05C71.9499 8.95 70.5665 8.15 69.0332 7.65C67.5332 7.11666 65.9999 6.85 64.4332 6.85H58.2332V32.85Z" fill="#27272A"/>
</g>
<defs>
<filter id="filter0_d_1149_1281" x="0.985104" y="0.5" width="81.7981" height="37.5" filterUnits="userSpaceOnUse" color-interpolation-filters="sRGB">
<feFlood flood-opacity="0" result="BackgroundImageFix"/>
<feColorMatrix in="SourceAlpha" type="matrix" values="0 0 0 0 0 0 0 0 0 0 0 0 0 0 0 0 0 0 127 0" result="hardAlpha"/>
<feOffset dx="-4.11451"/>
<feComposite in2="hardAlpha" operator="out"/>
<feColorMatrix type="matrix" values="0 0 0 0 1 0 0 0 0 0.439216 0 0 0 0 0.219608 0 0 0 1 0"/>
<feBlend mode="normal" in2="BackgroundImageFix" result="effect1_dropShadow_1149_1281"/>
<feBlend mode="normal" in="SourceGraphic" in2="effect1_dropShadow_1149_1281" result="shape"/>
</filter>
</defs>
</svg>
